<svg xmlns="http://www.w3.org/2000/svg" xmlns:xlink="http://www.w3.org/1999/xlink" contentStyleType="text/css" data-diagram-type="CLASS" height="998px" preserveAspectRatio="none" style="width:697px;height:998px;background:#FFFFFF;" version="1.1" viewBox="0 0 697 998" width="697px" zoomAndPan="magnify"><defs/><g><!--class Person--><g class="entity" data-entity="Person" data-source-line="1" data-uid="ent0002" id="entity_Person"><rect fill="#F1F1F1" height="96.8906" rx="2.5" ry="2.5" style="stroke:#181818;stroke-width:0.5;" width="81.5488" x="339" y="7"/><ellipse cx="354.9022" cy="23" fill="#ADD1B2" rx="11" ry="11" style="stroke:#181818;stroke-width:1;"/><path d="M357.8709,28.6406 Q357.2928,28.9375 356.6522,29.0781 Q356.0116,29.2344 355.3084,29.2344 Q352.8084,29.2344 351.4803,27.5938 Q350.1678,25.9375 350.1678,22.8125 Q350.1678,19.6875 351.4803,18.0313 Q352.8084,16.375 355.3084,16.375 Q356.0116,16.375 356.6522,16.5313 Q357.3084,16.6875 357.8709,16.9844 L357.8709,19.7031 Q357.2459,19.125 356.6522,18.8594 Q356.0584,18.5781 355.4334,18.5781 Q354.0897,18.5781 353.4022,19.6563 Q352.7147,20.7188 352.7147,22.8125 Q352.7147,24.9063 353.4022,25.9844 Q354.0897,27.0469 355.4334,27.0469 Q356.0584,27.0469 356.6522,26.7813 Q357.2459,26.5 357.8709,25.9219 L357.8709,28.6406 Z " fill="#000000"/><text fill="#000000" font-family="sans-serif" font-size="14" lengthAdjust="spacing" textLength="47.5439" x="369.1027" y="27.8467">Person</text><line style="stroke:#181818;stroke-width:0.5;" x1="340" x2="419.5488" y1="39" y2="39"/><ellipse cx="350" cy="52.6484" fill="none" rx="3" ry="3" style="stroke:#038048;stroke-width:1;"/><text fill="#000000" font-family="sans-serif" font-size="14" lengthAdjust="spacing" textLength="39.7031" x="359" y="55.9951">name</text><ellipse cx="350" cy="68.9453" fill="none" rx="3" ry="3" style="stroke:#038048;stroke-width:1;"/><text fill="#000000" font-family="sans-serif" font-size="14" lengthAdjust="spacing" textLength="38.6094" x="359" y="72.292">email</text><ellipse cx="350" cy="85.2422" fill="none" rx="3" ry="3" style="stroke:#038048;stroke-width:1;"/><text fill="#000000" font-family="sans-serif" font-size="14" lengthAdjust="spacing" textLength="55.5488" x="359" y="88.5889">location</text><line style="stroke:#181818;stroke-width:0.5;" x1="340" x2="419.5488" y1="95.8906" y2="95.8906"/></g><!--class BookTaker--><g class="entity" data-entity="BookTaker" data-source-line="7" data-uid="ent0003" id="entity_BookTaker"><rect fill="#F1F1F1" height="48" rx="2.5" ry="2.5" style="stroke:#181818;stroke-width:0.5;" width="106.4502" x="544.55" y="205.34"/><ellipse cx="559.55" cy="221.34" fill="#ADD1B2" rx="11" ry="11" style="stroke:#181818;stroke-width:1;"/><path d="M562.5188,226.9806 Q561.9406,227.2775 561.3,227.4181 Q560.6594,227.5744 559.9563,227.5744 Q557.4563,227.5744 556.1281,225.9338 Q554.8156,224.2775 554.8156,221.1525 Q554.8156,218.0275 556.1281,216.3713 Q557.4563,214.715 559.9563,214.715 Q560.6594,214.715 561.3,214.8713 Q561.9563,215.0275 562.5188,215.3244 L562.5188,218.0431 Q561.8938,217.465 561.3,217.1994 Q560.7063,216.9181 560.0813,216.9181 Q558.7375,216.9181 558.05,217.9963 Q557.3625,219.0588 557.3625,221.1525 Q557.3625,223.2463 558.05,224.3244 Q558.7375,225.3869 560.0813,225.3869 Q560.7063,225.3869 561.3,225.1213 Q561.8938,224.84 562.5188,224.2619 L562.5188,226.9806 Z " fill="#000000"/><text fill="#000000" font-family="sans-serif" font-size="14" lengthAdjust="spacing" textLength="74.4502" x="573.55" y="226.1867">BookTaker</text><line style="stroke:#181818;stroke-width:0.5;" x1="545.55" x2="650.0002" y1="237.34" y2="237.34"/><line style="stroke:#181818;stroke-width:0.5;" x1="545.55" x2="650.0002" y1="245.34" y2="245.34"/></g><!--class BookGiver--><g class="entity" data-entity="BookGiver" data-source-line="10" data-uid="ent0004" id="entity_BookGiver"><rect fill="#F1F1F1" height="48" rx="2.5" ry="2.5" style="stroke:#181818;stroke-width:0.5;" width="104.2354" x="327.65" y="205.34"/><ellipse cx="342.65" cy="221.34" fill="#ADD1B2" rx="11" ry="11" style="stroke:#181818;stroke-width:1;"/><path d="M345.6188,226.9806 Q345.0406,227.2775 344.4,227.4181 Q343.7594,227.5744 343.0563,227.5744 Q340.5563,227.5744 339.2281,225.9338 Q337.9156,224.2775 337.9156,221.1525 Q337.9156,218.0275 339.2281,216.3713 Q340.5563,214.715 343.0563,214.715 Q343.7594,214.715 344.4,214.8713 Q345.0563,215.0275 345.6188,215.3244 L345.6188,218.0431 Q344.9938,217.465 344.4,217.1994 Q343.8063,216.9181 343.1813,216.9181 Q341.8375,216.9181 341.15,217.9963 Q340.4625,219.0588 340.4625,221.1525 Q340.4625,223.2463 341.15,224.3244 Q341.8375,225.3869 343.1813,225.3869 Q343.8063,225.3869 344.4,225.1213 Q344.9938,224.84 345.6188,224.2619 L345.6188,226.9806 Z " fill="#000000"/><text fill="#000000" font-family="sans-serif" font-size="14" lengthAdjust="spacing" textLength="72.2354" x="356.65" y="226.1867">BookGiver</text><line style="stroke:#181818;stroke-width:0.5;" x1="328.65" x2="430.8854" y1="237.34" y2="237.34"/><line style="stroke:#181818;stroke-width:0.5;" x1="328.65" x2="430.8854" y1="245.34" y2="245.34"/></g><!--class BookBox--><g class="entity" data-entity="BookBox" data-source-line="13" data-uid="ent0005" id="entity_BookBox"><rect fill="#F1F1F1" height="96.8906" rx="2.5" ry="2.5" style="stroke:#181818;stroke-width:0.5;" width="154.625" x="292.46" y="688.46"/><ellipse cx="335.0572" cy="704.46" fill="#ADD1B2" rx="11" ry="11" style="stroke:#181818;stroke-width:1;"/><path d="M338.026,710.1006 Q337.4478,710.3975 336.8072,710.5381 Q336.1666,710.6944 335.4635,710.6944 Q332.9635,710.6944 331.6353,709.0538 Q330.3228,707.3975 330.3228,704.2725 Q330.3228,701.1475 331.6353,699.4913 Q332.9635,697.835 335.4635,697.835 Q336.1666,697.835 336.8072,697.9913 Q337.4635,698.1475 338.026,698.4444 L338.026,701.1631 Q337.401,700.585 336.8072,700.3194 Q336.2135,700.0381 335.5885,700.0381 Q334.2447,700.0381 333.5572,701.1163 Q332.8697,702.1788 332.8697,704.2725 Q332.8697,706.3663 333.5572,707.4444 Q334.2447,708.5069 335.5885,708.5069 Q336.2135,708.5069 336.8072,708.2413 Q337.401,707.96 338.026,707.3819 L338.026,710.1006 Z " fill="#000000"/><text fill="#000000" font-family="sans-serif" font-size="14" lengthAdjust="spacing" textLength="61.2979" x="355.1899" y="709.3067">BookBox</text><line style="stroke:#181818;stroke-width:0.5;" x1="293.46" x2="446.085" y1="720.46" y2="720.46"/><ellipse cx="303.46" cy="734.1084" fill="none" rx="3" ry="3" style="stroke:#038048;stroke-width:1;"/><text fill="#000000" font-family="sans-serif" font-size="14" lengthAdjust="spacing" textLength="67.04" x="312.46" y="737.4551">boxName</text><ellipse cx="303.46" cy="750.4053" fill="none" rx="3" ry="3" style="stroke:#038048;stroke-width:1;"/><text fill="#000000" font-family="sans-serif" font-size="14" lengthAdjust="spacing" textLength="128.625" x="312.46" y="753.752">location : Location</text><text fill="#000000" font-family="sans-serif" font-size="14" lengthAdjust="spacing" textLength="105.4785" x="312.46" y="770.0489">isFull : boolean</text><line style="stroke:#181818;stroke-width:0.5;" x1="293.46" x2="446.085" y1="777.3506" y2="777.3506"/></g><!--class Location--><g class="entity" data-entity="Location" data-source-line="19" data-uid="ent0006" id="entity_Location"><rect fill="#F1F1F1" height="80.5938" rx="2.5" ry="2.5" style="stroke:#181818;stroke-width:0.5;" width="91.459" x="456.04" y="15.15"/><ellipse cx="471.04" cy="31.15" fill="#ADD1B2" rx="11" ry="11" style="stroke:#181818;stroke-width:1;"/><path d="M474.0088,36.7906 Q473.4306,37.0875 472.79,37.2281 Q472.1494,37.3844 471.4463,37.3844 Q468.9463,37.3844 467.6181,35.7438 Q466.3056,34.0875 466.3056,30.9625 Q466.3056,27.8375 467.6181,26.1813 Q468.9463,24.525 471.4463,24.525 Q472.1494,24.525 472.79,24.6813 Q473.4463,24.8375 474.0088,25.1344 L474.0088,27.8531 Q473.3838,27.275 472.79,27.0094 Q472.1963,26.7281 471.5713,26.7281 Q470.2275,26.7281 469.54,27.8063 Q468.8525,28.8688 468.8525,30.9625 Q468.8525,33.0563 469.54,34.1344 Q470.2275,35.1969 471.5713,35.1969 Q472.1963,35.1969 472.79,34.9313 Q473.3838,34.65 474.0088,34.0719 L474.0088,36.7906 Z " fill="#000000"/><text fill="#000000" font-family="sans-serif" font-size="14" lengthAdjust="spacing" textLength="59.459" x="485.04" y="35.9967">Location</text><line style="stroke:#181818;stroke-width:0.5;" x1="457.04" x2="546.499" y1="47.15" y2="47.15"/><text fill="#000000" font-family="sans-serif" font-size="14" lengthAdjust="spacing" textLength="53.71" x="462.04" y="64.1451">latitude</text><text fill="#000000" font-family="sans-serif" font-size="14" lengthAdjust="spacing" textLength="65.9668" x="462.04" y="80.442">longitude</text><line style="stroke:#181818;stroke-width:0.5;" x1="457.04" x2="546.499" y1="87.7438" y2="87.7438"/></g><!--class Book--><g class="entity" data-entity="Book" data-source-line="24" data-uid="ent0007" id="entity_Book"><rect fill="#F1F1F1" height="129.4844" rx="2.5" ry="2.5" style="stroke:#181818;stroke-width:0.5;" width="202.9756" x="419.28" y="862.35"/><ellipse cx="499.0964" cy="878.35" fill="#ADD1B2" rx="11" ry="11" style="stroke:#181818;stroke-width:1;"/><path d="M502.0652,883.9906 Q501.487,884.2875 500.8464,884.4281 Q500.2058,884.5844 499.5027,884.5844 Q497.0027,884.5844 495.6745,882.9438 Q494.362,881.2875 494.362,878.1625 Q494.362,875.0375 495.6745,873.3813 Q497.0027,871.725 499.5027,871.725 Q500.2058,871.725 500.8464,871.8813 Q501.5027,872.0375 502.0652,872.3344 L502.0652,875.0531 Q501.4402,874.475 500.8464,874.2094 Q500.2527,873.9281 499.6277,873.9281 Q498.2839,873.9281 497.5964,875.0063 Q496.9089,876.0688 496.9089,878.1625 Q496.9089,880.2563 497.5964,881.3344 Q498.2839,882.3969 499.6277,882.3969 Q500.2527,882.3969 500.8464,882.1313 Q501.4402,881.85 502.0652,881.2719 L502.0652,883.9906 Z " fill="#000000"/><text fill="#000000" font-family="sans-serif" font-size="14" lengthAdjust="spacing" textLength="34.8428" x="519.5964" y="883.1967">Book</text><line style="stroke:#181818;stroke-width:0.5;" x1="420.28" x2="621.2556" y1="894.35" y2="894.35"/><ellipse cx="430.28" cy="907.9984" fill="none" rx="3" ry="3" style="stroke:#038048;stroke-width:1;"/><text fill="#000000" font-family="sans-serif" font-size="14" lengthAdjust="spacing" textLength="27.3711" x="439.28" y="911.3451">title</text><ellipse cx="430.28" cy="924.2953" fill="none" rx="3" ry="3" style="stroke:#038048;stroke-width:1;"/><text fill="#000000" font-family="sans-serif" font-size="14" lengthAdjust="spacing" textLength="176.9756" x="439.28" y="927.642">authorName : string[1..*]</text><ellipse cx="430.28" cy="940.5922" fill="none" rx="3" ry="3" style="stroke:#038048;stroke-width:1;"/><text fill="#000000" font-family="sans-serif" font-size="14" lengthAdjust="spacing" textLength="130.2793" x="439.28" y="943.9389">genre : string[1..*]</text><ellipse cx="430.28" cy="956.8891" fill="none" rx="3" ry="3" style="stroke:#038048;stroke-width:1;"/><text fill="#000000" font-family="sans-serif" font-size="14" lengthAdjust="spacing" textLength="43.0186" x="439.28" y="960.2357">status</text><ellipse cx="430.28" cy="973.1859" fill="none" rx="3" ry="3" style="stroke:#038048;stroke-width:1;"/><text fill="#000000" font-family="sans-serif" font-size="14" lengthAdjust="spacing" textLength="33.0928" x="439.28" y="976.5326">ISBN</text><line style="stroke:#181818;stroke-width:0.5;" x1="420.28" x2="621.2556" y1="983.8344" y2="983.8344"/></g><!--class Donation--><g class="entity" data-entity="Donation" data-source-line="33" data-uid="ent0008" id="entity_Donation"><rect fill="#F1F1F1" height="96.8906" rx="2.5" ry="2.5" style="stroke:#181818;stroke-width:0.5;" width="124.7588" x="307.39" y="467.27"/><ellipse cx="335.5046" cy="483.27" fill="#ADD1B2" rx="11" ry="11" style="stroke:#181818;stroke-width:1;"/><path d="M338.4733,488.9106 Q337.8952,489.2075 337.2546,489.3481 Q336.614,489.5044 335.9108,489.5044 Q333.4108,489.5044 332.0827,487.8638 Q330.7702,486.2075 330.7702,483.0825 Q330.7702,479.9575 332.0827,478.3013 Q333.4108,476.645 335.9108,476.645 Q336.614,476.645 337.2546,476.8013 Q337.9108,476.9575 338.4733,477.2544 L338.4733,479.9731 Q337.8483,479.395 337.2546,479.1294 Q336.6608,478.8481 336.0358,478.8481 Q334.6921,478.8481 334.0046,479.9263 Q333.3171,480.9888 333.3171,483.0825 Q333.3171,485.1763 334.0046,486.2544 Q334.6921,487.3169 336.0358,487.3169 Q336.6608,487.3169 337.2546,487.0513 Q337.8483,486.77 338.4733,486.1919 L338.4733,488.9106 Z " fill="#000000"/><text fill="#000000" font-family="sans-serif" font-size="14" lengthAdjust="spacing" textLength="63.6152" x="352.419" y="488.1167">Donation</text><line style="stroke:#181818;stroke-width:0.5;" x1="308.39" x2="431.1488" y1="499.27" y2="499.27"/><ellipse cx="318.39" cy="512.9184" fill="none" rx="3" ry="3" style="stroke:#038048;stroke-width:1;"/><text fill="#000000" font-family="sans-serif" font-size="14" lengthAdjust="spacing" textLength="95.1836" x="327.39" y="516.2651">donationDate</text><ellipse cx="318.39" cy="529.2153" fill="none" rx="3" ry="3" style="stroke:#038048;stroke-width:1;"/><text fill="#000000" font-family="sans-serif" font-size="14" lengthAdjust="spacing" textLength="43.0186" x="327.39" y="532.562">status</text><ellipse cx="318.39" cy="545.5122" fill="none" rx="3" ry="3" style="stroke:#038048;stroke-width:1;"/><text fill="#000000" font-family="sans-serif" font-size="14" lengthAdjust="spacing" textLength="98.7588" x="327.39" y="548.8589">donateBookID</text><line style="stroke:#181818;stroke-width:0.5;" x1="308.39" x2="431.1488" y1="556.1606" y2="556.1606"/></g><!--class Feedback--><g class="entity" data-entity="Feedback" data-source-line="39" data-uid="ent0009" id="entity_Feedback"><rect fill="#F1F1F1" height="64.2969" rx="2.5" ry="2.5" style="stroke:#181818;stroke-width:0.5;" width="104.6201" x="585.46" y="594.16"/><ellipse cx="602.7926" cy="610.16" fill="#ADD1B2" rx="11" ry="11" style="stroke:#181818;stroke-width:1;"/><path d="M605.7614,615.8006 Q605.1832,616.0975 604.5426,616.2381 Q603.902,616.3944 603.1989,616.3944 Q600.6989,616.3944 599.3707,614.7538 Q598.0582,613.0975 598.0582,609.9725 Q598.0582,606.8475 599.3707,605.1913 Q600.6989,603.535 603.1989,603.535 Q603.902,603.535 604.5426,603.6913 Q605.1989,603.8475 605.7614,604.1444 L605.7614,606.8631 Q605.1364,606.285 604.5426,606.0194 Q603.9489,605.7381 603.3239,605.7381 Q601.9801,605.7381 601.2926,606.8163 Q600.6051,607.8788 600.6051,609.9725 Q600.6051,612.0663 601.2926,613.1444 Q601.9801,614.2069 603.3239,614.2069 Q603.9489,614.2069 604.5426,613.9413 Q605.1364,613.66 605.7614,613.0819 L605.7614,615.8006 Z " fill="#000000"/><text fill="#000000" font-family="sans-serif" font-size="14" lengthAdjust="spacing" textLength="67.4365" x="617.311" y="615.0067">Feedback</text><line style="stroke:#181818;stroke-width:0.5;" x1="586.46" x2="689.0801" y1="626.16" y2="626.16"/><ellipse cx="596.46" cy="639.8084" fill="none" rx="3" ry="3" style="stroke:#038048;stroke-width:1;"/><text fill="#000000" font-family="sans-serif" font-size="14" lengthAdjust="spacing" textLength="78.6201" x="605.46" y="643.1551">reasonText</text><line style="stroke:#181818;stroke-width:0.5;" x1="586.46" x2="689.0801" y1="650.4569" y2="650.4569"/></g><!--class ProblemReport--><g class="entity" data-entity="ProblemReport" data-source-line="44" data-uid="ent0010" id="entity_ProblemReport"><rect fill="#F1F1F1" height="96.8906" rx="2.5" ry="2.5" style="stroke:#181818;stroke-width:0.5;" width="136.8291" x="85.36" y="180.89"/><ellipse cx="100.36" cy="196.89" fill="#ADD1B2" rx="11" ry="11" style="stroke:#181818;stroke-width:1;"/><path d="M103.3288,202.5306 Q102.7506,202.8275 102.11,202.9681 Q101.4694,203.1244 100.7663,203.1244 Q98.2663,203.1244 96.9381,201.4838 Q95.6256,199.8275 95.6256,196.7025 Q95.6256,193.5775 96.9381,191.9213 Q98.2663,190.265 100.7663,190.265 Q101.4694,190.265 102.11,190.4213 Q102.7663,190.5775 103.3288,190.8744 L103.3288,193.5931 Q102.7038,193.015 102.11,192.7494 Q101.5163,192.4681 100.8913,192.4681 Q99.5475,192.4681 98.86,193.5463 Q98.1725,194.6088 98.1725,196.7025 Q98.1725,198.7963 98.86,199.8744 Q99.5475,200.9369 100.8913,200.9369 Q101.5163,200.9369 102.11,200.6713 Q102.7038,200.39 103.3288,199.8119 L103.3288,202.5306 Z " fill="#000000"/><text fill="#000000" font-family="sans-serif" font-size="14" lengthAdjust="spacing" textLength="104.8291" x="114.36" y="201.7367">ProblemReport</text><line style="stroke:#181818;stroke-width:0.5;" x1="86.36" x2="221.1891" y1="212.89" y2="212.89"/><ellipse cx="96.36" cy="226.5384" fill="none" rx="3" ry="3" style="stroke:#038048;stroke-width:1;"/><text fill="#000000" font-family="sans-serif" font-size="14" lengthAdjust="spacing" textLength="77.8408" x="105.36" y="229.8851">description</text><ellipse cx="96.36" cy="242.8353" fill="none" rx="3" ry="3" style="stroke:#038048;stroke-width:1;"/><text fill="#000000" font-family="sans-serif" font-size="14" lengthAdjust="spacing" textLength="43.0186" x="105.36" y="246.182">status</text><ellipse cx="96.36" cy="259.1322" fill="none" rx="3" ry="3" style="stroke:#038048;stroke-width:1;"/><text fill="#000000" font-family="sans-serif" font-size="14" lengthAdjust="spacing" textLength="77.7588" x="105.36" y="262.4789">reportTime</text><line style="stroke:#181818;stroke-width:0.5;" x1="86.36" x2="221.1891" y1="269.7806" y2="269.7806"/></g><!--class MaintenanceTeam--><g class="entity" data-entity="MaintenanceTeam" data-source-line="50" data-uid="ent0011" id="entity_MaintenanceTeam"><rect fill="#F1F1F1" height="48" rx="2.5" ry="2.5" style="stroke:#181818;stroke-width:0.5;" width="161.541" x="7" y="31.45"/><ellipse cx="22" cy="47.45" fill="#ADD1B2" rx="11" ry="11" style="stroke:#181818;stroke-width:1;"/><path d="M24.9688,53.0906 Q24.3906,53.3875 23.75,53.5281 Q23.1094,53.6844 22.4063,53.6844 Q19.9063,53.6844 18.5781,52.0438 Q17.2656,50.3875 17.2656,47.2625 Q17.2656,44.1375 18.5781,42.4813 Q19.9063,40.825 22.4063,40.825 Q23.1094,40.825 23.75,40.9813 Q24.4063,41.1375 24.9688,41.4344 L24.9688,44.1531 Q24.3438,43.575 23.75,43.3094 Q23.1563,43.0281 22.5313,43.0281 Q21.1875,43.0281 20.5,44.1063 Q19.8125,45.1688 19.8125,47.2625 Q19.8125,49.3563 20.5,50.4344 Q21.1875,51.4969 22.5313,51.4969 Q23.1563,51.4969 23.75,51.2313 Q24.3438,50.95 24.9688,50.3719 L24.9688,53.0906 Z " fill="#000000"/><text fill="#000000" font-family="sans-serif" font-size="14" lengthAdjust="spacing" textLength="129.541" x="36" y="52.2967">MaintenanceTeam</text><line style="stroke:#181818;stroke-width:0.5;" x1="8" x2="167.541" y1="63.45" y2="63.45"/><line style="stroke:#181818;stroke-width:0.5;" x1="8" x2="167.541" y1="71.45" y2="71.45"/></g><!--class Route--><g class="entity" data-entity="Route" data-source-line="53" data-uid="ent0012" id="entity_Route"><rect fill="#F1F1F1" height="129.4844" rx="2.5" ry="2.5" style="stroke:#181818;stroke-width:0.5;" width="139.9551" x="190.79" y="307.78"/><ellipse cx="235.8833" cy="323.78" fill="#ADD1B2" rx="11" ry="11" style="stroke:#181818;stroke-width:1;"/><path d="M238.852,329.4206 Q238.2739,329.7175 237.6333,329.8581 Q236.9926,330.0144 236.2895,330.0144 Q233.7895,330.0144 232.4614,328.3738 Q231.1489,326.7175 231.1489,323.5925 Q231.1489,320.4675 232.4614,318.8113 Q233.7895,317.155 236.2895,317.155 Q236.9926,317.155 237.6333,317.3113 Q238.2895,317.4675 238.852,317.7644 L238.852,320.4831 Q238.227,319.905 237.6333,319.6394 Q237.0395,319.3581 236.4145,319.3581 Q235.0708,319.3581 234.3833,320.4363 Q233.6958,321.4988 233.6958,323.5925 Q233.6958,325.6863 234.3833,326.7644 Q235.0708,327.8269 236.4145,327.8269 Q237.0395,327.8269 237.6333,327.5613 Q238.227,327.28 238.852,326.7019 L238.852,329.4206 Z " fill="#000000"/><text fill="#000000" font-family="sans-serif" font-size="14" lengthAdjust="spacing" textLength="41.2686" x="256.3833" y="328.6267">Route</text><line style="stroke:#181818;stroke-width:0.5;" x1="191.79" x2="329.7451" y1="339.78" y2="339.78"/><ellipse cx="201.79" cy="353.4284" fill="none" rx="3" ry="3" style="stroke:#038048;stroke-width:1;"/><text fill="#000000" font-family="sans-serif" font-size="14" lengthAdjust="spacing" textLength="92.0664" x="210.79" y="356.7751">startLocation</text><ellipse cx="201.79" cy="369.7253" fill="none" rx="3" ry="3" style="stroke:#038048;stroke-width:1;"/><text fill="#000000" font-family="sans-serif" font-size="14" lengthAdjust="spacing" textLength="85.832" x="210.79" y="373.072">endLocation</text><ellipse cx="201.79" cy="386.0222" fill="none" rx="3" ry="3" style="stroke:#038048;stroke-width:1;"/><text fill="#000000" font-family="sans-serif" font-size="14" lengthAdjust="spacing" textLength="113.9551" x="210.79" y="389.3689">directions : Path</text><ellipse cx="201.79" cy="402.3191" fill="none" rx="3" ry="3" style="stroke:#038048;stroke-width:1;"/><text fill="#000000" font-family="sans-serif" font-size="14" lengthAdjust="spacing" textLength="105.1846" x="210.79" y="405.6657">estimatedTime</text><ellipse cx="201.79" cy="418.6159" fill="none" rx="3" ry="3" style="stroke:#038048;stroke-width:1;"/><text fill="#000000" font-family="sans-serif" font-size="14" lengthAdjust="spacing" textLength="59.3223" x="210.79" y="421.9626">distance</text><line style="stroke:#181818;stroke-width:0.5;" x1="191.79" x2="329.7451" y1="429.2644" y2="429.2644"/></g><!--class Path--><g class="entity" data-entity="Path" data-source-line="61" data-uid="ent0013" id="entity_Path"><rect fill="#F1F1F1" height="48" rx="2.5" ry="2.5" style="stroke:#181818;stroke-width:0.5;" width="63.3838" x="582.08" y="31.45"/><ellipse cx="597.08" cy="47.45" fill="#ADD1B2" rx="11" ry="11" style="stroke:#181818;stroke-width:1;"/><path d="M600.0488,53.0906 Q599.4706,53.3875 598.83,53.5281 Q598.1894,53.6844 597.4863,53.6844 Q594.9863,53.6844 593.6581,52.0438 Q592.3456,50.3875 592.3456,47.2625 Q592.3456,44.1375 593.6581,42.4813 Q594.9863,40.825 597.4863,40.825 Q598.1894,40.825 598.83,40.9813 Q599.4863,41.1375 600.0488,41.4344 L600.0488,44.1531 Q599.4238,43.575 598.83,43.3094 Q598.2363,43.0281 597.6113,43.0281 Q596.2675,43.0281 595.58,44.1063 Q594.8925,45.1688 594.8925,47.2625 Q594.8925,49.3563 595.58,50.4344 Q596.2675,51.4969 597.6113,51.4969 Q598.2363,51.4969 598.83,51.2313 Q599.4238,50.95 600.0488,50.3719 L600.0488,53.0906 Z " fill="#000000"/><text fill="#000000" font-family="sans-serif" font-size="14" lengthAdjust="spacing" textLength="31.3838" x="611.08" y="52.2967">Path</text><line style="stroke:#181818;stroke-width:0.5;" x1="583.08" x2="644.4638" y1="63.45" y2="63.45"/><line style="stroke:#181818;stroke-width:0.5;" x1="583.08" x2="644.4638" y1="71.45" y2="71.45"/></g><!--reverse link Person to BookTaker--><g class="link" data-entity-1="Person" data-entity-2="BookTaker" data-source-line="65" data-uid="lnk14" id="link_Person_BookTaker"><path codeLine="65" d="M435.3984,102.6281 C441.2084,106.9281 432.78,100.33 438.77,103.89 C468.57,121.6 482.37,114.02 510.77,133.89 C539.08,153.7 565,184.15 581.05,205.09" fill="none" id="Person-backto-BookTaker" style="stroke:#181818;stroke-width:1;"/><polygon fill="none" points="420.93,91.92,431.8291,107.451,438.9678,97.8053,420.93,91.92" style="stroke:#181818;stroke-width:1;"/></g><!--reverse link Person to BookGiver--><g class="link" data-entity-1="Person" data-entity-2="BookGiver" data-source-line="66" data-uid="lnk15" id="link_Person_BookGiver"><path codeLine="66" d="M379.77,122.33 C379.77,155.11 379.77,179.15 379.77,204.9" fill="none" id="Person-backto-BookGiver" style="stroke:#181818;stroke-width:1;"/><polygon fill="none" points="379.77,104.33,373.77,122.33,385.77,122.33,379.77,104.33" style="stroke:#181818;stroke-width:1;"/></g><!--reverse link BookBox to Book--><g class="link" data-entity-1="BookBox" data-entity-2="Book" data-source-line="69" data-uid="lnk16" id="link_BookBox_Book"><path codeLine="69" d="M409.7267,795.4335 C420.5667,810.6035 425.91,817.51 437.77,832.35 C445.57,842.11 454.06,852.22 462.53,862.02" fill="none" id="BookBox-backto-Book" style="stroke:#181818;stroke-width:1;"/><polygon fill="none" points="402.75,785.67,402.9838,792.8773,409.7267,795.4335,409.4928,788.2262,402.75,785.67" style="stroke:#181818;stroke-width:1;"/><text fill="#000000" font-family="sans-serif" font-size="13" lengthAdjust="spacing" textLength="55.0278" x="438.77" y="828.4169">contains</text><text fill="#000000" font-family="sans-serif" font-size="13" lengthAdjust="spacing" textLength="8.271" x="398.6621" y="805.3064">1</text><text fill="#000000" font-family="sans-serif" font-size="13" lengthAdjust="spacing" textLength="23.0356" x="431.9044" y="851.1566">0..*</text></g><!--link Person to Route--><g class="link" data-entity-1="Person" data-entity-2="Route" data-source-line="72" data-uid="lnk17" id="link_Person_Route"><path codeLine="72" d="M348.95,104.34 C335.47,126.88 320.35,154.56 309.77,180.89 C293.34,221.8 282.2924,264.0165 274.1224,301.6665" fill="none" id="Person-to-Route" style="stroke:#181818;stroke-width:1;"/><polygon fill="#181818" points="272.85,307.53,278.6676,299.5829,273.9103,302.6437,270.8495,297.8864,272.85,307.53" style="stroke:#181818;stroke-width:1;"/><text fill="#000000" font-family="sans-serif" font-size="13" lengthAdjust="spacing" textLength="29.7832" x="331.77" y="146.9569">uses</text></g><!--link Route to BookBox--><g class="link" data-entity-1="Route" data-entity-2="BookBox" data-source-line="73" data-uid="lnk18" id="link_Route_BookBox"><path codeLine="73" d="M265.93,437.64 C270.07,475.11 277.33,522.98 289.77,564.16 C302.95,607.77 322.4844,649.1511 340.2144,682.8211" fill="none" id="Route-to-BookBox" style="stroke:#181818;stroke-width:1;"/><polygon fill="#181818" points="343.01,688.13,342.3559,678.3029,340.6803,683.7059,335.2773,682.0303,343.01,688.13" style="stroke:#181818;stroke-width:1;"/></g><!--link Person to BookBox--><g class="link" data-entity-1="Person" data-entity-2="BookBox" data-source-line="74" data-uid="lnk19" id="link_Person_BookBox"><path codeLine="74" d="M414.25,104.19 C428.2,126.37 442.67,153.8 449.77,180.89 C492.93,345.67 478.31,396.23 449.77,564.16 C442.33,607.93 435.73,618.3 416.77,658.46 C412.14,668.27 409.6316,673.2481 403.9916,682.8381" fill="none" id="Person-to-BookBox" style="stroke:#181818;stroke-width:1;"/><polygon fill="#181818" points="400.95,688.01,408.9604,682.2799,403.4847,683.7001,402.0646,678.2244,400.95,688.01" style="stroke:#181818;stroke-width:1;"/><text fill="#000000" font-family="sans-serif" font-size="13" lengthAdjust="spacing" textLength="80.7803" x="477.77" y="377.0969">navigates to</text></g><!--link Donation to Book--><g class="link" data-entity-1="Donation" data-entity-2="Book" data-source-line="76" data-uid="lnk20" id="link_Donation_Book"><path codeLine="76" d="M399.42,564.31 C405.3,574.1 411.34,584.4 416.77,594.16 C439.65,635.24 447.93,644.55 464.77,688.46 C485.68,742.97 485.52,758.48 498.77,815.35 C502.29,830.43 504.5533,840.8665 507.6233,856.2165" fill="none" id="Donation-to-Book" style="stroke:#181818;stroke-width:1;"/><polygon fill="#181818" points="508.8,862.1,510.9573,852.4903,507.8194,857.1971,503.1126,854.0592,508.8,862.1" style="stroke:#181818;stroke-width:1;"/><text fill="#000000" font-family="sans-serif" font-size="13" lengthAdjust="spacing" textLength="52.2793" x="492.77" y="741.4669">donates</text></g><!--link BookGiver to Donation--><g class="link" data-entity-1="BookGiver" data-entity-2="Donation" data-source-line="77" data-uid="lnk21" id="link_BookGiver_Donation"><path codeLine="77" d="M378.95,253.61 C377.32,300.04 373.8406,399.0037 371.6706,460.7837" fill="none" id="BookGiver-to-Donation" style="stroke:#181818;stroke-width:1;"/><polygon fill="#181818" points="371.46,466.78,375.7735,457.926,371.6355,461.7831,367.7784,457.6451,371.46,466.78" style="stroke:#181818;stroke-width:1;"/><text fill="#000000" font-family="sans-serif" font-size="13" lengthAdjust="spacing" textLength="48.3247" x="377.77" y="377.0969">creates</text></g><!--link Donation to BookBox--><g class="link" data-entity-1="Donation" data-entity-2="BookBox" data-source-line="78" data-uid="lnk22" id="link_Donation_BookBox"><path codeLine="78" d="M369.77,564.54 C369.77,601.2 369.77,645.54 369.77,682.17" fill="none" id="Donation-to-BookBox" style="stroke:#181818;stroke-width:1;"/><polygon fill="#181818" points="369.77,688.17,373.77,679.17,369.77,683.17,365.77,679.17,369.77,688.17" style="stroke:#181818;stroke-width:1;"/><text fill="#000000" font-family="sans-serif" font-size="13" lengthAdjust="spacing" textLength="37.6162" x="370.77" y="630.8769">toBox</text></g><!--link BookTaker to Feedback--><g class="link" data-entity-1="BookTaker" data-entity-2="Feedback" data-source-line="80" data-uid="lnk23" id="link_BookTaker_Feedback"><path codeLine="80" d="M600.12,253.57 C606.96,321.04 626.2057,511.0605 633.9857,587.9105" fill="none" id="BookTaker-to-Feedback" style="stroke:#181818;stroke-width:1;"/><polygon fill="#181818" points="634.59,593.88,637.6632,584.5229,634.0864,588.9054,629.7038,585.3287,634.59,593.88" style="stroke:#181818;stroke-width:1;"/><text fill="#000000" font-family="sans-serif" font-size="13" lengthAdjust="spacing" textLength="55.8784" x="618.77" y="377.0969">provides</text></g><!--link Feedback to Book--><g class="link" data-entity-1="Feedback" data-entity-2="Book" data-source-line="81" data-uid="lnk24" id="link_Feedback_Book"><path codeLine="81" d="M627.65,658.76 C617.13,690.85 599.85,741.96 582.77,785.35 C572.8,810.69 563.376,832.7012 552.706,856.6012" fill="none" id="Feedback-to-Book" style="stroke:#181818;stroke-width:1;"/><polygon fill="#181818" points="550.26,862.08,557.5815,855.4925,552.2983,857.5143,550.2764,852.2312,550.26,862.08" style="stroke:#181818;stroke-width:1;"/><text fill="#000000" font-family="sans-serif" font-size="13" lengthAdjust="spacing" textLength="37.5083" x="617.77" y="741.4669">about</text></g><!--link Person to ProblemReport--><g class="link" data-entity-1="Person" data-entity-2="ProblemReport" data-source-line="83" data-uid="lnk25" id="link_Person_ProblemReport"><path codeLine="83" d="M338.9,61.16 C293.29,68.6 220.46,87.39 178.77,133.89 C167.33,146.65 162.2632,158.1681 158.8232,174.5481" fill="none" id="Person-to-ProblemReport" style="stroke:#181818;stroke-width:1;"/><polygon fill="#181818" points="157.59,180.42,163.3544,172.4343,158.6176,175.5267,155.5252,170.79,157.59,180.42" style="stroke:#181818;stroke-width:1;"/><text fill="#000000" font-family="sans-serif" font-size="13" lengthAdjust="spacing" textLength="51.4097" x="179.77" y="146.9569">submits</text></g><!--link ProblemReport to BookBox--><g class="link" data-entity-1="ProblemReport" data-entity-2="BookBox" data-source-line="84" data-uid="lnk26" id="link_ProblemReport_BookBox"><path codeLine="84" d="M155.61,278.1 C158.28,320.64 164.81,384.18 180.77,437.27 C212.45,542.6 226.61,569.85 291.77,658.46 C299.23,668.6 303.8811,674.3257 312.8311,683.6757" fill="none" id="ProblemReport-to-BookBox" style="stroke:#181818;stroke-width:1;"/><polygon fill="#181818" points="316.98,688.01,313.6462,678.7425,313.5226,684.398,307.8671,684.2744,316.98,688.01" style="stroke:#181818;stroke-width:1;"/><text fill="#000000" font-family="sans-serif" font-size="13" lengthAdjust="spacing" textLength="17.875" x="229.77" y="520.2769">for</text></g><!--link MaintenanceTeam to ProblemReport--><g class="link" data-entity-1="MaintenanceTeam" data-entity-2="ProblemReport" data-source-line="85" data-uid="lnk27" id="link_MaintenanceTeam_ProblemReport"><path codeLine="85" d="M82.15,79.79 C78.55,99.42 76.01,127.9 84.77,150.89 C88.81,161.49 91.3642,166.8278 98.4642,175.9878" fill="none" id="MaintenanceTeam-to-ProblemReport" style="stroke:#181818;stroke-width:1;"/><polygon fill="#181818" points="102.14,180.73,99.7879,171.1661,99.0769,176.7781,93.4649,176.0671,102.14,180.73" style="stroke:#181818;stroke-width:1;"/><text fill="#000000" font-family="sans-serif" font-size="13" lengthAdjust="spacing" textLength="52.5586" x="85.77" y="146.9569">handled</text></g><!--SRC=[RLDDJoin3BpdLqGzWehWka8Sgeed940Lz8OuU7VzseXiN2NUgXBmtt6I_QISDXvFPkpOMra8GM_G1tBwKsbzwQ31-CK6Z8q7InMm8QU-bQeIVKNqiOKFz79Z1lupntDmHQUiNDBfkHFlDNMX7_kZu2RSjzOAM19PX8dbm8fAMbi9kAqn1-HsEPhvPbFXsMG9BU_9nm94Fx0tRlTsStLryHwJEtJ-BpmmS1lYwU5rzHprEuCrkR6UoxgBri0ulvOo6CjvM8_btIFM9LHTYHv1Nd-B9vuOR3oL5fiNF93dpWL3vSqXpM9cuXDfQvh92po1SOmEN8LRX6Owb1Tg6REaQ7ZktpPDtTNJi3OUgnW4UPmDy3vn0fj6kggJOsA9ZXYD5f4g3X7eTklsQxaS5-SCJPiZpVSBixXPQ9BSubf6iSZpB7H5ZgMle0RPvVAkwwVGRS2WSX3XJchAxDKBxU1eTj93q4nA3TFiISB8amjgtEkO79XIZCmj4iukPmUcQAx6VoMcXy4N-k3fQ6IaQi0cvb1A6xCcv_iWczgMZU6WvlYyXF_arUyz-4jh3wwsMFy0]--></g></svg>