<svg xmlns="http://www.w3.org/2000/svg" xmlns:xlink="http://www.w3.org/1999/xlink" contentStyleType="text/css" data-diagram-type="CLASS" height="886px" preserveAspectRatio="none" style="width:753px;height:886px;background:#FFFFFF;" version="1.1" viewBox="0 0 753 886" width="753px" zoomAndPan="magnify"><defs/><g><!--class Person--><g class="entity" data-entity="Person" data-source-line="1" data-uid="ent0002" id="entity_Person"><rect fill="#F1F1F1" height="96.8906" rx="2.5" ry="2.5" style="stroke:#181818;stroke-width:0.5;" width="79.5439" x="398" y="7"/><ellipse cx="413" cy="23" fill="#ADD1B2" rx="11" ry="11" style="stroke:#181818;stroke-width:1;"/><path d="M415.9688,28.6406 Q415.3906,28.9375 414.75,29.0781 Q414.1094,29.2344 413.4063,29.2344 Q410.9063,29.2344 409.5781,27.5938 Q408.2656,25.9375 408.2656,22.8125 Q408.2656,19.6875 409.5781,18.0313 Q410.9063,16.375 413.4063,16.375 Q414.1094,16.375 414.75,16.5313 Q415.4063,16.6875 415.9688,16.9844 L415.9688,19.7031 Q415.3438,19.125 414.75,18.8594 Q414.1563,18.5781 413.5313,18.5781 Q412.1875,18.5781 411.5,19.6563 Q410.8125,20.7188 410.8125,22.8125 Q410.8125,24.9063 411.5,25.9844 Q412.1875,27.0469 413.5313,27.0469 Q414.1563,27.0469 414.75,26.7813 Q415.3438,26.5 415.9688,25.9219 L415.9688,28.6406 Z " fill="#000000"/><text fill="#000000" font-family="sans-serif" font-size="14" lengthAdjust="spacing" textLength="47.5439" x="427" y="27.8467">Person</text><line style="stroke:#181818;stroke-width:0.5;" x1="399" x2="476.5439" y1="39" y2="39"/><text fill="#000000" font-family="sans-serif" font-size="14" lengthAdjust="spacing" textLength="39.7031" x="404" y="55.9951">name</text><text fill="#000000" font-family="sans-serif" font-size="14" lengthAdjust="spacing" textLength="38.6094" x="404" y="72.292">email</text><text fill="#000000" font-family="sans-serif" font-size="14" lengthAdjust="spacing" textLength="55.5488" x="404" y="88.5889">location</text><line style="stroke:#181818;stroke-width:0.5;" x1="399" x2="476.5439" y1="95.8906" y2="95.8906"/></g><!--class BookTaker--><g class="entity" data-entity="BookTaker" data-source-line="7" data-uid="ent0003" id="entity_BookTaker"><rect fill="#F1F1F1" height="48" rx="2.5" ry="2.5" style="stroke:#181818;stroke-width:0.5;" width="106.4502" x="535.55" y="221.63"/><ellipse cx="550.55" cy="237.63" fill="#ADD1B2" rx="11" ry="11" style="stroke:#181818;stroke-width:1;"/><path d="M553.5188,243.2706 Q552.9406,243.5675 552.3,243.7081 Q551.6594,243.8644 550.9563,243.8644 Q548.4563,243.8644 547.1281,242.2238 Q545.8156,240.5675 545.8156,237.4425 Q545.8156,234.3175 547.1281,232.6613 Q548.4563,231.005 550.9563,231.005 Q551.6594,231.005 552.3,231.1613 Q552.9563,231.3175 553.5188,231.6144 L553.5188,234.3331 Q552.8938,233.755 552.3,233.4894 Q551.7063,233.2081 551.0813,233.2081 Q549.7375,233.2081 549.05,234.2863 Q548.3625,235.3488 548.3625,237.4425 Q548.3625,239.5363 549.05,240.6144 Q549.7375,241.6769 551.0813,241.6769 Q551.7063,241.6769 552.3,241.4113 Q552.8938,241.13 553.5188,240.5519 L553.5188,243.2706 Z " fill="#000000"/><text fill="#000000" font-family="sans-serif" font-size="14" lengthAdjust="spacing" textLength="74.4502" x="564.55" y="242.4767">BookTaker</text><line style="stroke:#181818;stroke-width:0.5;" x1="536.55" x2="641.0002" y1="253.63" y2="253.63"/><line style="stroke:#181818;stroke-width:0.5;" x1="536.55" x2="641.0002" y1="261.63" y2="261.63"/></g><!--class BookGiver--><g class="entity" data-entity="BookGiver" data-source-line="10" data-uid="ent0004" id="entity_BookGiver"><rect fill="#F1F1F1" height="48" rx="2.5" ry="2.5" style="stroke:#181818;stroke-width:0.5;" width="104.2354" x="642.65" y="340.37"/><ellipse cx="657.65" cy="356.37" fill="#ADD1B2" rx="11" ry="11" style="stroke:#181818;stroke-width:1;"/><path d="M660.6188,362.0106 Q660.0406,362.3075 659.4,362.4481 Q658.7594,362.6044 658.0563,362.6044 Q655.5563,362.6044 654.2281,360.9638 Q652.9156,359.3075 652.9156,356.1825 Q652.9156,353.0575 654.2281,351.4013 Q655.5563,349.745 658.0563,349.745 Q658.7594,349.745 659.4,349.9013 Q660.0563,350.0575 660.6188,350.3544 L660.6188,353.0731 Q659.9938,352.495 659.4,352.2294 Q658.8063,351.9481 658.1813,351.9481 Q656.8375,351.9481 656.15,353.0263 Q655.4625,354.0888 655.4625,356.1825 Q655.4625,358.2763 656.15,359.3544 Q656.8375,360.4169 658.1813,360.4169 Q658.8063,360.4169 659.4,360.1513 Q659.9938,359.87 660.6188,359.2919 L660.6188,362.0106 Z " fill="#000000"/><text fill="#000000" font-family="sans-serif" font-size="14" lengthAdjust="spacing" textLength="72.2354" x="671.65" y="361.2167">BookGiver</text><line style="stroke:#181818;stroke-width:0.5;" x1="643.65" x2="745.8854" y1="372.37" y2="372.37"/><line style="stroke:#181818;stroke-width:0.5;" x1="643.65" x2="745.8854" y1="380.37" y2="380.37"/></g><!--class BookBox--><g class="entity" data-entity="BookBox" data-source-line="13" data-uid="ent0005" id="entity_BookBox"><rect fill="#F1F1F1" height="96.8906" rx="2.5" ry="2.5" style="stroke:#181818;stroke-width:0.5;" width="140.625" x="330.46" y="418.37"/><ellipse cx="366.7572" cy="434.37" fill="#ADD1B2" rx="11" ry="11" style="stroke:#181818;stroke-width:1;"/><path d="M369.726,440.0106 Q369.1478,440.3075 368.5072,440.4481 Q367.8666,440.6044 367.1635,440.6044 Q364.6635,440.6044 363.3353,438.9638 Q362.0228,437.3075 362.0228,434.1825 Q362.0228,431.0575 363.3353,429.4013 Q364.6635,427.745 367.1635,427.745 Q367.8666,427.745 368.5072,427.9013 Q369.1635,428.0575 369.726,428.3544 L369.726,431.0731 Q369.101,430.495 368.5072,430.2294 Q367.9135,429.9481 367.2885,429.9481 Q365.9447,429.9481 365.2572,431.0263 Q364.5697,432.0888 364.5697,434.1825 Q364.5697,436.2763 365.2572,437.3544 Q365.9447,438.4169 367.2885,438.4169 Q367.9135,438.4169 368.5072,438.1513 Q369.101,437.87 369.726,437.2919 L369.726,440.0106 Z " fill="#000000"/><text fill="#000000" font-family="sans-serif" font-size="14" lengthAdjust="spacing" textLength="61.2979" x="385.4899" y="439.2167">BookBox</text><line style="stroke:#181818;stroke-width:0.5;" x1="331.46" x2="470.085" y1="450.37" y2="450.37"/><text fill="#000000" font-family="sans-serif" font-size="14" lengthAdjust="spacing" textLength="67.04" x="336.46" y="467.3651">boxName</text><text fill="#000000" font-family="sans-serif" font-size="14" lengthAdjust="spacing" textLength="128.625" x="336.46" y="483.662">location : Location</text><text fill="#000000" font-family="sans-serif" font-size="14" lengthAdjust="spacing" textLength="105.4785" x="336.46" y="499.9589">isFull : boolean</text><line style="stroke:#181818;stroke-width:0.5;" x1="331.46" x2="470.085" y1="507.2606" y2="507.2606"/></g><!--class Location--><g class="entity" data-entity="Location" data-source-line="19" data-uid="ent0006" id="entity_Location"><rect fill="#F1F1F1" height="80.5938" rx="2.5" ry="2.5" style="stroke:#181818;stroke-width:0.5;" width="91.459" x="513.04" y="15.15"/><ellipse cx="528.04" cy="31.15" fill="#ADD1B2" rx="11" ry="11" style="stroke:#181818;stroke-width:1;"/><path d="M531.0088,36.7906 Q530.4306,37.0875 529.79,37.2281 Q529.1494,37.3844 528.4463,37.3844 Q525.9463,37.3844 524.6181,35.7437 Q523.3056,34.0875 523.3056,30.9625 Q523.3056,27.8375 524.6181,26.1812 Q525.9463,24.525 528.4463,24.525 Q529.1494,24.525 529.79,24.6812 Q530.4463,24.8375 531.0088,25.1344 L531.0088,27.8531 Q530.3838,27.275 529.79,27.0094 Q529.1963,26.7281 528.5713,26.7281 Q527.2275,26.7281 526.54,27.8062 Q525.8525,28.8687 525.8525,30.9625 Q525.8525,33.0562 526.54,34.1344 Q527.2275,35.1969 528.5713,35.1969 Q529.1963,35.1969 529.79,34.9312 Q530.3838,34.65 531.0088,34.0719 L531.0088,36.7906 Z " fill="#000000"/><text fill="#000000" font-family="sans-serif" font-size="14" lengthAdjust="spacing" textLength="59.459" x="542.04" y="35.9967">Location</text><line style="stroke:#181818;stroke-width:0.5;" x1="514.04" x2="603.499" y1="47.15" y2="47.15"/><text fill="#000000" font-family="sans-serif" font-size="14" lengthAdjust="spacing" textLength="53.71" x="519.04" y="64.1451">latitude</text><text fill="#000000" font-family="sans-serif" font-size="14" lengthAdjust="spacing" textLength="65.9668" x="519.04" y="80.442">longitude</text><line style="stroke:#181818;stroke-width:0.5;" x1="514.04" x2="603.499" y1="87.7437" y2="87.7437"/></g><!--class Book--><g class="entity" data-entity="Book" data-source-line="24" data-uid="ent0007" id="entity_Book"><rect fill="#F1F1F1" height="129.4844" rx="2.5" ry="2.5" style="stroke:#181818;stroke-width:0.5;" width="188.9756" x="453.28" y="592.27"/><ellipse cx="526.0964" cy="608.27" fill="#ADD1B2" rx="11" ry="11" style="stroke:#181818;stroke-width:1;"/><path d="M529.0652,613.9106 Q528.487,614.2075 527.8464,614.3481 Q527.2058,614.5044 526.5027,614.5044 Q524.0027,614.5044 522.6745,612.8638 Q521.362,611.2075 521.362,608.0825 Q521.362,604.9575 522.6745,603.3013 Q524.0027,601.645 526.5027,601.645 Q527.2058,601.645 527.8464,601.8013 Q528.5027,601.9575 529.0652,602.2544 L529.0652,604.9731 Q528.4402,604.395 527.8464,604.1294 Q527.2527,603.8481 526.6277,603.8481 Q525.2839,603.8481 524.5964,604.9263 Q523.9089,605.9888 523.9089,608.0825 Q523.9089,610.1763 524.5964,611.2544 Q525.2839,612.3169 526.6277,612.3169 Q527.2527,612.3169 527.8464,612.0513 Q528.4402,611.77 529.0652,611.1919 L529.0652,613.9106 Z " fill="#000000"/><text fill="#000000" font-family="sans-serif" font-size="14" lengthAdjust="spacing" textLength="34.8428" x="546.5964" y="613.1167">Book</text><line style="stroke:#181818;stroke-width:0.5;" x1="454.28" x2="641.2556" y1="624.27" y2="624.27"/><text fill="#000000" font-family="sans-serif" font-size="14" lengthAdjust="spacing" textLength="27.3711" x="459.28" y="641.2651">title</text><text fill="#000000" font-family="sans-serif" font-size="14" lengthAdjust="spacing" textLength="176.9756" x="459.28" y="657.562">authorName : string[1..*]</text><text fill="#000000" font-family="sans-serif" font-size="14" lengthAdjust="spacing" textLength="130.2793" x="459.28" y="673.8589">genre : string[1..*]</text><text fill="#000000" font-family="sans-serif" font-size="14" lengthAdjust="spacing" textLength="43.0186" x="459.28" y="690.1557">status</text><text fill="#000000" font-family="sans-serif" font-size="14" lengthAdjust="spacing" textLength="33.0928" x="459.28" y="706.4526">ISBN</text><line style="stroke:#181818;stroke-width:0.5;" x1="454.28" x2="641.2556" y1="713.7544" y2="713.7544"/></g><!--class Donation--><g class="entity" data-entity="Donation" data-source-line="33" data-uid="ent0008" id="entity_Donation"><rect fill="#F1F1F1" height="96.8906" rx="2.5" ry="2.5" style="stroke:#181818;stroke-width:0.5;" width="110.7588" x="492.39" y="782.75"/><ellipse cx="514.2046" cy="798.75" fill="#ADD1B2" rx="11" ry="11" style="stroke:#181818;stroke-width:1;"/><path d="M517.1733,804.3906 Q516.5952,804.6875 515.9546,804.8281 Q515.314,804.9844 514.6108,804.9844 Q512.1108,804.9844 510.7827,803.3438 Q509.4702,801.6875 509.4702,798.5625 Q509.4702,795.4375 510.7827,793.7813 Q512.1108,792.125 514.6108,792.125 Q515.314,792.125 515.9546,792.2813 Q516.6108,792.4375 517.1733,792.7344 L517.1733,795.4531 Q516.5483,794.875 515.9546,794.6094 Q515.3608,794.3281 514.7358,794.3281 Q513.3921,794.3281 512.7046,795.4063 Q512.0171,796.4688 512.0171,798.5625 Q512.0171,800.6563 512.7046,801.7344 Q513.3921,802.7969 514.7358,802.7969 Q515.3608,802.7969 515.9546,802.5313 Q516.5483,802.25 517.1733,801.6719 L517.1733,804.3906 Z " fill="#000000"/><text fill="#000000" font-family="sans-serif" font-size="14" lengthAdjust="spacing" textLength="63.6152" x="529.719" y="803.5967">Donation</text><line style="stroke:#181818;stroke-width:0.5;" x1="493.39" x2="602.1488" y1="814.75" y2="814.75"/><text fill="#000000" font-family="sans-serif" font-size="14" lengthAdjust="spacing" textLength="95.1836" x="498.39" y="831.7451">donationDate</text><text fill="#000000" font-family="sans-serif" font-size="14" lengthAdjust="spacing" textLength="43.0186" x="498.39" y="848.042">status</text><text fill="#000000" font-family="sans-serif" font-size="14" lengthAdjust="spacing" textLength="98.7588" x="498.39" y="864.3389">donateBookID</text><line style="stroke:#181818;stroke-width:0.5;" x1="493.39" x2="602.1488" y1="871.6406" y2="871.6406"/></g><!--class Feedback--><g class="entity" data-entity="Feedback" data-source-line="39" data-uid="ent0009" id="entity_Feedback"><rect fill="#F1F1F1" height="64.2969" rx="2.5" ry="2.5" style="stroke:#181818;stroke-width:0.5;" width="99.4365" x="522.05" y="434.67"/><ellipse cx="537.05" cy="450.67" fill="#ADD1B2" rx="11" ry="11" style="stroke:#181818;stroke-width:1;"/><path d="M540.0188,456.3106 Q539.4406,456.6075 538.8,456.7481 Q538.1594,456.9044 537.4563,456.9044 Q534.9563,456.9044 533.6281,455.2637 Q532.3156,453.6075 532.3156,450.4825 Q532.3156,447.3575 533.6281,445.7012 Q534.9563,444.045 537.4563,444.045 Q538.1594,444.045 538.8,444.2012 Q539.4563,444.3575 540.0188,444.6544 L540.0188,447.3731 Q539.3938,446.795 538.8,446.5294 Q538.2063,446.2481 537.5813,446.2481 Q536.2375,446.2481 535.55,447.3262 Q534.8625,448.3887 534.8625,450.4825 Q534.8625,452.5762 535.55,453.6544 Q536.2375,454.7169 537.5813,454.7169 Q538.2063,454.7169 538.8,454.4512 Q539.3938,454.17 540.0188,453.5919 L540.0188,456.3106 Z " fill="#000000"/><text fill="#000000" font-family="sans-serif" font-size="14" lengthAdjust="spacing" textLength="67.4365" x="551.05" y="455.5167">Feedback</text><line style="stroke:#181818;stroke-width:0.5;" x1="523.05" x2="620.4865" y1="466.67" y2="466.67"/><text fill="#000000" font-family="sans-serif" font-size="14" lengthAdjust="spacing" textLength="78.6201" x="528.05" y="483.6651">reasonText</text><line style="stroke:#181818;stroke-width:0.5;" x1="523.05" x2="620.4865" y1="490.9669" y2="490.9669"/></g><!--class ProblemReport--><g class="entity" data-entity="ProblemReport" data-source-line="44" data-uid="ent0010" id="entity_ProblemReport"><rect fill="#F1F1F1" height="96.8906" rx="2.5" ry="2.5" style="stroke:#181818;stroke-width:0.5;" width="136.8291" x="51.36" y="197.19"/><ellipse cx="66.36" cy="213.19" fill="#ADD1B2" rx="11" ry="11" style="stroke:#181818;stroke-width:1;"/><path d="M69.3288,218.8306 Q68.7506,219.1275 68.11,219.2681 Q67.4694,219.4244 66.7663,219.4244 Q64.2663,219.4244 62.9381,217.7837 Q61.6256,216.1275 61.6256,213.0025 Q61.6256,209.8775 62.9381,208.2212 Q64.2663,206.565 66.7663,206.565 Q67.4694,206.565 68.11,206.7212 Q68.7663,206.8775 69.3288,207.1744 L69.3288,209.8931 Q68.7038,209.315 68.11,209.0494 Q67.5163,208.7681 66.8913,208.7681 Q65.5475,208.7681 64.86,209.8462 Q64.1725,210.9087 64.1725,213.0025 Q64.1725,215.0962 64.86,216.1744 Q65.5475,217.2369 66.8913,217.2369 Q67.5163,217.2369 68.11,216.9712 Q68.7038,216.69 69.3288,216.1119 L69.3288,218.8306 Z " fill="#000000"/><text fill="#000000" font-family="sans-serif" font-size="14" lengthAdjust="spacing" textLength="104.8291" x="80.36" y="218.0367">ProblemReport</text><line style="stroke:#181818;stroke-width:0.5;" x1="52.36" x2="187.1891" y1="229.19" y2="229.19"/><text fill="#000000" font-family="sans-serif" font-size="14" lengthAdjust="spacing" textLength="77.8408" x="57.36" y="246.1851">description</text><text fill="#000000" font-family="sans-serif" font-size="14" lengthAdjust="spacing" textLength="43.0186" x="57.36" y="262.482">status</text><text fill="#000000" font-family="sans-serif" font-size="14" lengthAdjust="spacing" textLength="77.7588" x="57.36" y="278.7789">reportTime</text><line style="stroke:#181818;stroke-width:0.5;" x1="52.36" x2="187.1891" y1="286.0806" y2="286.0806"/></g><!--class MaintenanceTeam--><g class="entity" data-entity="MaintenanceTeam" data-source-line="50" data-uid="ent0011" id="entity_MaintenanceTeam"><rect fill="#F1F1F1" height="48" rx="2.5" ry="2.5" style="stroke:#181818;stroke-width:0.5;" width="161.541" x="7" y="31.44"/><ellipse cx="22" cy="47.44" fill="#ADD1B2" rx="11" ry="11" style="stroke:#181818;stroke-width:1;"/><path d="M24.9688,53.0806 Q24.3906,53.3775 23.75,53.5181 Q23.1094,53.6744 22.4063,53.6744 Q19.9063,53.6744 18.5781,52.0337 Q17.2656,50.3775 17.2656,47.2525 Q17.2656,44.1275 18.5781,42.4712 Q19.9063,40.815 22.4063,40.815 Q23.1094,40.815 23.75,40.9712 Q24.4063,41.1275 24.9688,41.4244 L24.9688,44.1431 Q24.3438,43.565 23.75,43.2994 Q23.1563,43.0181 22.5313,43.0181 Q21.1875,43.0181 20.5,44.0962 Q19.8125,45.1587 19.8125,47.2525 Q19.8125,49.3462 20.5,50.4244 Q21.1875,51.4869 22.5313,51.4869 Q23.1563,51.4869 23.75,51.2212 Q24.3438,50.94 24.9688,50.3619 L24.9688,53.0806 Z " fill="#000000"/><text fill="#000000" font-family="sans-serif" font-size="14" lengthAdjust="spacing" textLength="129.541" x="36" y="52.2867">MaintenanceTeam</text><line style="stroke:#181818;stroke-width:0.5;" x1="8" x2="167.541" y1="63.44" y2="63.44"/><line style="stroke:#181818;stroke-width:0.5;" x1="8" x2="167.541" y1="71.44" y2="71.44"/></g><!--class Route--><g class="entity" data-entity="Route" data-source-line="53" data-uid="ent0012" id="entity_Route"><rect fill="#F1F1F1" height="129.4844" rx="2.5" ry="2.5" style="stroke:#181818;stroke-width:0.5;" width="125.9551" x="374.79" y="180.89"/><ellipse cx="413.4989" cy="196.89" fill="#ADD1B2" rx="11" ry="11" style="stroke:#181818;stroke-width:1;"/><path d="M416.4677,202.5306 Q415.8896,202.8275 415.2489,202.9681 Q414.6083,203.1244 413.9052,203.1244 Q411.4052,203.1244 410.0771,201.4838 Q408.7646,199.8275 408.7646,196.7025 Q408.7646,193.5775 410.0771,191.9213 Q411.4052,190.265 413.9052,190.265 Q414.6083,190.265 415.2489,190.4213 Q415.9052,190.5775 416.4677,190.8744 L416.4677,193.5931 Q415.8427,193.015 415.2489,192.7494 Q414.6552,192.4681 414.0302,192.4681 Q412.6864,192.4681 411.9989,193.5463 Q411.3114,194.6088 411.3114,196.7025 Q411.3114,198.7963 411.9989,199.8744 Q412.6864,200.9369 414.0302,200.9369 Q414.6552,200.9369 415.2489,200.6713 Q415.8427,200.39 416.4677,199.8119 L416.4677,202.5306 Z " fill="#000000"/><text fill="#000000" font-family="sans-serif" font-size="14" lengthAdjust="spacing" textLength="41.2686" x="432.7676" y="201.7367">Route</text><line style="stroke:#181818;stroke-width:0.5;" x1="375.79" x2="499.7451" y1="212.89" y2="212.89"/><text fill="#000000" font-family="sans-serif" font-size="14" lengthAdjust="spacing" textLength="92.0664" x="380.79" y="229.8851">startLocation</text><text fill="#000000" font-family="sans-serif" font-size="14" lengthAdjust="spacing" textLength="85.832" x="380.79" y="246.182">endLocation</text><text fill="#000000" font-family="sans-serif" font-size="14" lengthAdjust="spacing" textLength="113.9551" x="380.79" y="262.4789">directions : Path</text><text fill="#000000" font-family="sans-serif" font-size="14" lengthAdjust="spacing" textLength="105.1846" x="380.79" y="278.7757">estimatedTime</text><text fill="#000000" font-family="sans-serif" font-size="14" lengthAdjust="spacing" textLength="59.3223" x="380.79" y="295.0726">distance</text><line style="stroke:#181818;stroke-width:0.5;" x1="375.79" x2="499.7451" y1="302.3744" y2="302.3744"/></g><!--class Path--><g class="entity" data-entity="Path" data-source-line="61" data-uid="ent0013" id="entity_Path"><rect fill="#F1F1F1" height="48" rx="2.5" ry="2.5" style="stroke:#181818;stroke-width:0.5;" width="63.3838" x="639.08" y="31.44"/><ellipse cx="654.08" cy="47.44" fill="#ADD1B2" rx="11" ry="11" style="stroke:#181818;stroke-width:1;"/><path d="M657.0488,53.0806 Q656.4706,53.3775 655.83,53.5181 Q655.1894,53.6744 654.4863,53.6744 Q651.9863,53.6744 650.6581,52.0337 Q649.3456,50.3775 649.3456,47.2525 Q649.3456,44.1275 650.6581,42.4712 Q651.9863,40.815 654.4863,40.815 Q655.1894,40.815 655.83,40.9712 Q656.4863,41.1275 657.0488,41.4244 L657.0488,44.1431 Q656.4238,43.565 655.83,43.2994 Q655.2363,43.0181 654.6113,43.0181 Q653.2675,43.0181 652.58,44.0962 Q651.8925,45.1587 651.8925,47.2525 Q651.8925,49.3462 652.58,50.4244 Q653.2675,51.4869 654.6113,51.4869 Q655.2363,51.4869 655.83,51.2212 Q656.4238,50.94 657.0488,50.3619 L657.0488,53.0806 Z " fill="#000000"/><text fill="#000000" font-family="sans-serif" font-size="14" lengthAdjust="spacing" textLength="31.3838" x="668.08" y="52.2867">Path</text><line style="stroke:#181818;stroke-width:0.5;" x1="640.08" x2="701.4638" y1="63.44" y2="63.44"/><line style="stroke:#181818;stroke-width:0.5;" x1="640.08" x2="701.4638" y1="71.44" y2="71.44"/></g><!--reverse link Person to BookTaker--><g class="link" data-entity-1="Person" data-entity-2="BookTaker" data-source-line="65" data-uid="lnk14" id="link_Person_BookTaker"><path codeLine="65" d="M487.1355,117.9688 C517.1955,155.4288 546.56,192.03 569.99,221.23" fill="none" id="Person-backto-BookTaker" style="stroke:#181818;stroke-width:1;"/><polygon fill="none" points="475.87,103.93,482.4559,121.724,491.8151,114.2136,475.87,103.93" style="stroke:#181818;stroke-width:1;"/></g><!--reverse link Person to BookGiver--><g class="link" data-entity-1="Person" data-entity-2="BookGiver" data-source-line="66" data-uid="lnk15" id="link_Person_BookGiver"><path codeLine="66" d="M492.3276,102.3722 C498.1176,106.7922 489.83,100.14 495.77,103.89 C563.9,146.82 610.36,117.31 659.77,180.89 C696.39,228.01 698.36,302.33 696.64,339.92" fill="none" id="Person-backto-BookGiver" style="stroke:#181818;stroke-width:1;"/><polygon fill="none" points="478.02,91.45,488.6868,107.1414,495.9683,97.603,478.02,91.45" style="stroke:#181818;stroke-width:1;"/></g><!--reverse link BookBox to Book--><g class="link" data-entity-1="BookBox" data-entity-2="Book" data-source-line="69" data-uid="lnk16" id="link_BookBox_Book"><path codeLine="69" d="M445.2484,524.7657 C463.3684,547.9557 478.05,566.75 497.64,591.83" fill="none" id="BookBox-backto-Book" style="stroke:#181818;stroke-width:1;"/><polygon fill="none" points="437.86,515.31,438.4023,522.5007,445.2484,524.7657,444.7061,517.5751,437.86,515.31" style="stroke:#181818;stroke-width:1;"/><text fill="#000000" font-family="sans-serif" font-size="13" lengthAdjust="spacing" textLength="55.0278" x="474.77" y="558.3369">contains</text><text fill="#000000" font-family="sans-serif" font-size="13" lengthAdjust="spacing" textLength="8.271" x="434.532" y="535.2605">1</text><text fill="#000000" font-family="sans-serif" font-size="13" lengthAdjust="spacing" textLength="23.0356" x="468.2865" y="581.4084">0..*</text></g><!--link Person to Route--><g class="link" data-entity-1="Person" data-entity-2="Route" data-source-line="73" data-uid="lnk17" id="link_Person_Route"><path codeLine="73" d="M437.77,103.93 C437.77,127.12 437.77,149.37 437.77,174.45" fill="none" id="Person-to-Route" style="stroke:#181818;stroke-width:1;"/><polygon fill="#181818" points="437.77,180.45,441.77,171.45,437.77,175.45,433.77,171.45,437.77,180.45" style="stroke:#181818;stroke-width:1;"/><text fill="#000000" font-family="sans-serif" font-size="13" lengthAdjust="spacing" textLength="29.7832" x="438.77" y="146.9569">uses</text></g><!--link Route to BookBox--><g class="link" data-entity-1="Route" data-entity-2="BookBox" data-source-line="74" data-uid="lnk18" id="link_Route_BookBox"><path codeLine="74" d="M426.97,310.62 C421.17,344.99 415.1392,380.7238 409.8192,412.2238" fill="none" id="Route-to-BookBox" style="stroke:#181818;stroke-width:1;"/><polygon fill="#181818" points="408.82,418.14,414.2629,409.9318,409.6527,413.2098,406.3746,408.5996,408.82,418.14" style="stroke:#181818;stroke-width:1;"/></g><!--link Person to BookBox--><g class="link" data-entity-1="Person" data-entity-2="BookBox" data-source-line="75" data-uid="lnk19" id="link_Person_BookBox"><path codeLine="75" d="M397.83,73.98 C358.58,93.66 301.01,129.67 275.77,180.89 C250.33,232.51 256.65,256.09 275.77,310.37 C290.27,351.53 316.6068,385.5094 343.8568,413.7894" fill="none" id="Person-to-BookBox" style="stroke:#181818;stroke-width:1;"/><polygon fill="#181818" points="348.02,418.11,344.6556,408.8536,344.5506,414.5095,338.8948,414.4046,348.02,418.11" style="stroke:#181818;stroke-width:1;"/><text fill="#000000" font-family="sans-serif" font-size="13" lengthAdjust="spacing" textLength="80.7803" x="276.77" y="250.1969">navigates to</text></g><!--link BookGiver to Donation--><g class="link" data-entity-1="BookGiver" data-entity-2="Donation" data-source-line="77" data-uid="lnk20" id="link_BookGiver_Donation"><path codeLine="77" d="M697.75,388.51 C704.29,447.49 715.17,606.98 659.77,721.75 C646.95,748.32 624.74,771.92 603.46,790.27" fill="none" id="BookGiver-Donation" style="stroke:#181818;stroke-width:1;"/><text fill="#000000" font-family="sans-serif" font-size="13" lengthAdjust="spacing" textLength="8.271" x="689.535" y="408.3053">1</text><text fill="#000000" font-family="sans-serif" font-size="13" lengthAdjust="spacing" textLength="23.0356" x="611.231" y="781.7454">0..*</text></g><!--link BookBox to Donation--><g class="link" data-entity-1="BookBox" data-entity-2="Donation" data-source-line="78" data-uid="lnk21" id="link_BookBox_Donation"><path codeLine="78" d="M398.32,515.48 C397.57,568.65 402.36,655.86 435.77,721.75 C448.99,747.82 470.99,771.2 492.01,789.51" fill="none" id="BookBox-Donation" style="stroke:#181818;stroke-width:1;"/><text fill="#000000" font-family="sans-serif" font-size="13" lengthAdjust="spacing" textLength="8.271" x="389.4317" y="535.4544">1</text><text fill="#000000" font-family="sans-serif" font-size="13" lengthAdjust="spacing" textLength="23.0356" x="461.2352" y="780.8975">0..*</text></g><!--link Book to Donation--><g class="link" data-entity-1="Book" data-entity-2="Donation" data-source-line="79" data-uid="lnk22" id="link_Book_Donation"><path codeLine="79" d="M547.77,722.12 C547.77,742.11 547.77,763.78 547.77,782.44" fill="none" id="Book-Donation" style="stroke:#181818;stroke-width:1;"/><text fill="#000000" font-family="sans-serif" font-size="13" lengthAdjust="spacing" textLength="8.271" x="539.3717" y="741.6814">1</text><text fill="#000000" font-family="sans-serif" font-size="13" lengthAdjust="spacing" textLength="24.8066" x="522.1393" y="771.6053">0..1</text></g><!--link BookTaker to Feedback--><g class="link" data-entity-1="BookTaker" data-entity-2="Feedback" data-source-line="81" data-uid="lnk23" id="link_BookTaker_Feedback"><path codeLine="81" d="M582.06,269.89 C576.99,288.71 570.47,316.01 567.77,340.37 C565.42,361.58 567.22,367.05 567.77,388.37 C568.16,403.45 568.6282,414.1697 569.4282,428.1897" fill="none" id="BookTaker-to-Feedback" style="stroke:#181818;stroke-width:1;"/><polygon fill="#181818" points="569.77,434.18,573.2508,424.9667,569.4852,429.1881,565.2638,425.4225,569.77,434.18" style="stroke:#181818;stroke-width:1;"/><text fill="#000000" font-family="sans-serif" font-size="13" lengthAdjust="spacing" textLength="55.8784" x="568.77" y="368.9369">provides</text></g><!--link Feedback to Book--><g class="link" data-entity-1="Feedback" data-entity-2="Book" data-source-line="82" data-uid="lnk24" id="link_Feedback_Book"><path codeLine="82" d="M567.75,499.32 C564.54,524.53 560.678,554.7781 556.698,586.0281" fill="none" id="Feedback-to-Book" style="stroke:#181818;stroke-width:1;"/><polygon fill="#181818" points="555.94,591.98,561.045,583.5575,556.5717,587.0201,553.1091,582.5468,555.94,591.98" style="stroke:#181818;stroke-width:1;"/><text fill="#000000" font-family="sans-serif" font-size="13" lengthAdjust="spacing" textLength="37.5083" x="561.77" y="558.3369">about</text></g><!--link Person to ProblemReport--><g class="link" data-entity-1="Person" data-entity-2="ProblemReport" data-source-line="84" data-uid="lnk25" id="link_Person_ProblemReport"><path codeLine="84" d="M397.83,58.94 C342.82,64.3 243.24,81.13 178.77,133.89 C158.96,150.1 147.275,169.2458 137.865,191.1858" fill="none" id="Person-to-ProblemReport" style="stroke:#181818;stroke-width:1;"/><polygon fill="#181818" points="135.5,196.7,142.7237,190.0054,137.4709,192.1048,135.3714,186.852,135.5,196.7" style="stroke:#181818;stroke-width:1;"/><text fill="#000000" font-family="sans-serif" font-size="13" lengthAdjust="spacing" textLength="51.4097" x="179.77" y="146.9569">submits</text></g><!--link ProblemReport to BookBox--><g class="link" data-entity-1="ProblemReport" data-entity-2="BookBox" data-source-line="85" data-uid="lnk26" id="link_ProblemReport_BookBox"><path codeLine="85" d="M141.75,294.4 C157.77,324.75 182.02,362.98 212.77,388.37 C246.79,416.48 286.7008,433.7548 324.4808,445.9648" fill="none" id="ProblemReport-to-BookBox" style="stroke:#181818;stroke-width:1;"/><polygon fill="#181818" points="330.19,447.81,322.8562,441.2361,325.4323,446.2724,320.396,448.8484,330.19,447.81" style="stroke:#181818;stroke-width:1;"/><text fill="#000000" font-family="sans-serif" font-size="13" lengthAdjust="spacing" textLength="17.875" x="213.77" y="368.9369">for</text></g><!--link MaintenanceTeam to ProblemReport--><g class="link" data-entity-1="MaintenanceTeam" data-entity-2="ProblemReport" data-source-line="86" data-uid="lnk27" id="link_MaintenanceTeam_ProblemReport"><path codeLine="86" d="M84.32,79.93 C82.13,99.16 80.46,127 84.77,150.89 C87.55,166.28 90.5661,176.8223 96.0761,191.3023" fill="none" id="MaintenanceTeam-to-ProblemReport" style="stroke:#181818;stroke-width:1;"/><polygon fill="#181818" points="98.21,196.91,98.7477,187.0758,96.4318,192.2369,91.2707,189.921,98.21,196.91" style="stroke:#181818;stroke-width:1;"/><text fill="#000000" font-family="sans-serif" font-size="13" lengthAdjust="spacing" textLength="52.5586" x="85.77" y="146.9569">handled</text></g><!--SRC=[TLF1Rjim3BthAuGS2wHehaQnGn2q2B0LGPTRqGDjSubGMGmaEWYmzTzBINOih-t9ukFJUwH8DnP2q3lqWPp-gxHsqA5yi0DZvMkf0JRarBjIJUAkYTxsy8PUw3FmqPm_Wskw9DcQBazPULJKbVuv7WKsuQ6tLi2Qo28KXbTMr97x4d3VOWx87N8qSqrKeTd8WfwFvAExg0VsnXrULhUtDw-IEw3pNy21WViWX-tlzLEK7hGtvAPIsY7O06Dv9-4OozXkfh8U4DiQcboQHv3ttkE52_6TfzfYzumdyfmTC3JUdDBx5mO-CVQcAxh-1SOnEd0DxX6wSWpFr3CcFL7mF3vd7B9hYwWr7fju3l8WE-1ZP0GsdNJJ9hV84GtncDGZKSGZC6pH_R_bSjgIJsXQ4sbwt8x5Qg59SeixUVn57b-b6t8iBGKXZWhBvO-Xbqht0OFAGOG7hP8vobUoqMTpa1w2PigsULEZyUGxZdPMrpVfChSgSchwDs89rv5N-kJfR6ISwegDDKeIQcbarkPy5MGz-xep7DGSdxVvXxpwVmk-qZg2Qoss7m00]--></g></svg>
