<svg xmlns="http://www.w3.org/2000/svg" xmlns:xlink="http://www.w3.org/1999/xlink" contentStyleType="text/css" data-diagram-type="DESCRIPTION" height="516px" preserveAspectRatio="none" style="width:1230px;height:516px;background:#FFFFFF;" version="1.1" viewBox="0 0 1230 516" width="1230px" zoomAndPan="magnify"><defs/><g><!--cluster Book Platform--><g class="cluster" data-entity="Book Platform" data-source-line="4" data-uid="ent0004" id="cluster_Book Platform"><rect fill="none" height="295" rx="2.5" ry="2.5" style="stroke:#181818;stroke-width:1;" width="1097.07" x="127.01" y="121.22"/><text fill="#000000" font-family="sans-serif" font-size="14" font-weight="bold" lengthAdjust="spacing" textLength="112.4922" x="619.2989" y="136.2151">Book Platform</text></g><!--entity UC1--><g class="entity" data-entity="UC1" data-source-line="5" data-uid="ent0005" id="entity_UC1"><ellipse cx="1066.5349" cy="231.219" fill="#F1F1F1" rx="141.5449" ry="30.709" style="stroke:#181818;stroke-width:0.5;"/><text fill="#000000" font-family="sans-serif" font-size="14" lengthAdjust="spacing" textLength="264.8379" x="934.116" y="235.8674">Finding the nearest Book Sharing Box</text></g><!--entity UC2--><g class="entity" data-entity="UC2" data-source-line="6" data-uid="ent0006" id="entity_UC2"><ellipse cx="689.7454" cy="270.2171" fill="#F1F1F1" rx="112.2354" ry="24.8471" style="stroke:#181818;stroke-width:0.5;"/><text fill="#000000" font-family="sans-serif" font-size="14" lengthAdjust="spacing" textLength="202.7061" x="588.3923" y="274.8655">Searching for a specific book</text></g><!--entity UC3--><g class="entity" data-entity="UC3" data-source-line="7" data-uid="ent0007" id="entity_UC3"><ellipse cx="689.7501" cy="354.224" fill="#F1F1F1" rx="108.5701" ry="24.114" style="stroke:#181818;stroke-width:0.5;"/><text fill="#000000" font-family="sans-serif" font-size="14" lengthAdjust="spacing" textLength="194.7832" x="592.3585" y="358.8725">Find Books in a specific Box</text></g><!--entity UC4--><g class="entity" data-entity="UC4" data-source-line="8" data-uid="ent0008" id="entity_UC4"><ellipse cx="298.7557" cy="366.2211" fill="#F1F1F1" rx="155.7557" ry="33.5511" style="stroke:#181818;stroke-width:0.5;"/><text fill="#000000" font-family="sans-serif" font-size="14" lengthAdjust="spacing" textLength="294.4443" x="151.5335" y="370.8696">Getting Information About the Book Taker</text></g><!--entity UC5--><g class="entity" data-entity="UC5" data-source-line="9" data-uid="ent0009" id="entity_UC5"><ellipse cx="298.7594" cy="264.2199" fill="#F1F1F1" rx="154.8994" ry="33.3799" style="stroke:#181818;stroke-width:0.5;"/><text fill="#000000" font-family="sans-serif" font-size="14" lengthAdjust="spacing" textLength="292.667" x="152.4259" y="268.8683">Be notified about no availability of a book</text></g><!--entity UC6--><g class="entity" data-entity="UC6" data-source-line="10" data-uid="ent0010" id="entity_UC6"><ellipse cx="298.7632" cy="176.2206" fill="#F1F1F1" rx="85.9032" ry="19.5806" style="stroke:#181818;stroke-width:0.5;"/><text fill="#000000" font-family="sans-serif" font-size="14" lengthAdjust="spacing" textLength="144.4023" x="226.562" y="180.8691">Reporting a problem</text></g><!--entity bg--><g class="entity" data-entity="bg" data-source-line="2" data-uid="ent0002" id="entity_bg"><ellipse cx="43.0029" cy="205.57" fill="#F1F1F1" rx="8" ry="8" style="stroke:#181818;stroke-width:0.5;"/><path d="M43.0029,213.57 L43.0029,240.57 M30.0029,221.57 L56.0029,221.57 M43.0029,240.57 L30.0029,255.57 M43.0029,240.57 L56.0029,255.57" fill="none" style="stroke:#181818;stroke-width:0.5;"/><text fill="#000000" font-family="sans-serif" font-size="14" lengthAdjust="spacing" textLength="74.0059" x="6" y="270.0651">book giver</text></g><!--entity bt--><g class="entity" data-entity="bt" data-source-line="3" data-uid="ent0003" id="entity_bt"><ellipse cx="298.7601" cy="443.57" fill="#F1F1F1" rx="8" ry="8" style="stroke:#181818;stroke-width:0.5;"/><path d="M298.7601,451.57 L298.7601,478.57 M285.7601,459.57 L311.7601,459.57 M298.7601,478.57 L285.7601,493.57 M298.7601,478.57 L311.7601,493.57" fill="none" style="stroke:#181818;stroke-width:0.5;"/><text fill="#000000" font-family="sans-serif" font-size="14" lengthAdjust="spacing" textLength="75.1201" x="261.2" y="508.0651">book taker</text></g><!--link bg to UC1--><g class="link" data-entity-1="bg" data-entity-2="UC1" data-source-line="13" data-uid="lnk11" id="link_bg_UC1"><path d="M62.96,196.61 C75.63,175.47 94.48,151.18 119.01,139.22 C392.15,6 501.85,124.57 801.99,172.22 C859.52,181.36 917.4574,194.1128 967.8574,206.2728" fill="none" id="bg-to-UC1" style="stroke:#181818;stroke-width:1;"/><polygon fill="#181818" points="973.69,207.68,965.8792,201.6807,968.8295,206.5073,964.0029,209.4576,973.69,207.68" style="stroke:#181818;stroke-width:1;"/></g><!--link bt to UC1--><g class="link" data-entity-1="bt" data-entity-2="UC1" data-source-line="14" data-uid="lnk12" id="link_bt_UC1"><path d="M336.65,472.63 C421.5,470.19 635.99,457.9 801.99,396.22 C890.03,363.51 975.4073,302.728 1024.1073,264.778" fill="none" id="bt-to-UC1" style="stroke:#181818;stroke-width:1;"/><polygon fill="#181818" points="1028.84,261.09,1019.2823,263.4669,1024.8961,264.1633,1024.1996,269.7772,1028.84,261.09" style="stroke:#181818;stroke-width:1;"/></g><!--link bt to UC2--><g class="link" data-entity-1="bt" data-entity-2="UC2" data-source-line="15" data-uid="lnk13" id="link_bt_UC2"><path d="M336.69,463.58 C369.09,454.22 416.79,438.2 454.52,416.22 C516.38,380.19 515.8,348.5 577.52,312.22 C591.75,303.85 602.3522,298.7699 617.9022,292.7699" fill="none" id="bt-to-UC2" style="stroke:#181818;stroke-width:1;"/><polygon fill="#181818" points="623.5,290.61,613.6634,290.118,618.8352,292.4099,616.5433,297.5817,623.5,290.61" style="stroke:#181818;stroke-width:1;"/></g><!--link bt to UC3--><g class="link" data-entity-1="bt" data-entity-2="UC3" data-source-line="16" data-uid="lnk14" id="link_bt_UC3"><path d="M336.48,463.57 C385.03,450.64 473.11,426.62 547.52,403.22 C575.37,394.46 600.3628,385.9391 625.9728,376.8891" fill="none" id="bt-to-UC3" style="stroke:#181818;stroke-width:1;"/><polygon fill="#181818" points="631.63,374.89,621.8115,374.1172,626.9157,376.5559,624.477,381.6601,631.63,374.89" style="stroke:#181818;stroke-width:1;"/></g><!--link bg to UC4--><g class="link" data-entity-1="bg" data-entity-2="UC4" data-source-line="17" data-uid="lnk15" id="link_bg_UC4"><path d="M72.62,273.78 C85.36,288.6 101.45,304.51 119.01,315.22 C138.57,327.15 155.3157,334.5606 177.5557,341.6806" fill="none" id="bg-to-UC4" style="stroke:#181818;stroke-width:1;"/><polygon fill="#181818" points="183.27,343.51,175.9181,336.9564,178.5081,341.9855,173.4789,344.5754,183.27,343.51" style="stroke:#181818;stroke-width:1;"/></g><!--link UC3 to UC1--><g class="link" data-entity-1="UC3" data-entity-2="UC1" data-source-line="19" data-uid="lnk16" id="link_UC3_UC1"><path d="M752.22,334.05 C816.39,312.99 911.5191,281.7709 981.3891,258.8409" fill="none" id="UC3-to-UC1" style="stroke:#181818;stroke-width:1;stroke-dasharray:7.0,7.0;"/><polygon fill="#181818" points="987.09,256.97,977.2915,255.9758,982.3393,258.5291,979.786,263.5769,987.09,256.97" style="stroke:#181818;stroke-width:1;"/><text fill="#000000" font-family="sans-serif" font-size="13" lengthAdjust="spacing" textLength="61.1851" x="832.99" y="285.2869">&#171;extend&#187;</text></g><!--link UC6 to UC2--><g class="link" data-entity-1="UC6" data-entity-2="UC2" data-source-line="20" data-uid="lnk17" id="link_UC6_UC2"><path d="M359.3,190.4 C388.07,197.26 423.1,205.64 454.52,213.22 C507.51,226 561.3812,239.1068 607.2512,250.3068" fill="none" id="UC6-to-UC2" style="stroke:#181818;stroke-width:1;stroke-dasharray:7.0,7.0;"/><polygon fill="#181818" points="613.08,251.73,605.2857,245.7094,608.2227,250.544,603.3881,253.481,613.08,251.73" style="stroke:#181818;stroke-width:1;"/><text fill="#000000" font-family="sans-serif" font-size="13" lengthAdjust="spacing" textLength="61.1851" x="485.52" y="217.2869">&#171;extend&#187;</text></g><!--link UC6 to UC1--><g class="link" data-entity-1="UC6" data-entity-2="UC1" data-source-line="21" data-uid="lnk18" id="link_UC6_UC1"><path d="M381.35,182.08 C512.76,191.52 766.6354,209.7499 925.5454,221.1699" fill="none" id="UC6-to-UC1" style="stroke:#181818;stroke-width:1;stroke-dasharray:7.0,7.0;"/><polygon fill="#181818" points="931.53,221.6,922.8399,216.9652,926.5429,221.2416,922.2664,224.9446,931.53,221.6" style="stroke:#181818;stroke-width:1;"/><text fill="#000000" font-family="sans-serif" font-size="13" lengthAdjust="spacing" textLength="61.1851" x="659.25" y="193.2869">&#171;extend&#187;</text></g><!--link UC5 to UC3--><g class="link" data-entity-1="UC5" data-entity-2="UC3" data-source-line="22" data-uid="lnk19" id="link_UC5_UC3"><path d="M405.8,288.75 C471.49,303.95 548.4345,321.7573 607.4645,335.4173" fill="none" id="UC5-to-UC3" style="stroke:#181818;stroke-width:1;stroke-dasharray:7.0,7.0;"/><polygon fill="#181818" points="613.31,336.77,605.4435,330.8439,608.4387,335.6427,603.6399,338.638,613.31,336.77" style="stroke:#181818;stroke-width:1;"/><text fill="#000000" font-family="sans-serif" font-size="13" lengthAdjust="spacing" textLength="61.1851" x="485.52" y="305.2869">&#171;extend&#187;</text></g><!--link UC5 to UC2--><g class="link" data-entity-1="UC5" data-entity-2="UC2" data-source-line="23" data-uid="lnk20" id="link_UC5_UC2"><path d="M453.5,266.59 C494.91,267.23 532.9007,267.8167 571.5007,268.4167" fill="none" id="UC5-to-UC2" style="stroke:#181818;stroke-width:1;stroke-dasharray:7.0,7.0;"/><polygon fill="#181818" points="577.5,268.51,568.5633,264.3706,572.5006,268.4323,568.4389,272.3696,577.5,268.51" style="stroke:#181818;stroke-width:1;"/><text fill="#000000" font-family="sans-serif" font-size="13" lengthAdjust="spacing" textLength="61.1851" x="485.52" y="263.2869">&#171;extend&#187;</text></g><!--SRC=[TP3DQiCm48JlUeh1zmIQlqC9WJhGqbjfcWTOsMjRn962l0affUzUIRYDqv2Rn3SpExijLm9nyAPk1ANnN8XnLb4XpYFJpkrGcnFx3DH1rrT0QFSBH4KdsRfbP7c4Ror9vVm-mvS2ZXqNr0NsR6nfR0rf69R9SoT8-ar3FeBSdLFaTlqmz6s2jcYY88I2q1suC9Kf49lqXid_GIcvWx53msN0TAX_OP4O_sfZQufNm9DsHqbLKyMFltstwzdGcuTTd8HqBa79OnteHAObRLeZdt1Lg32eEX_Qt_dWV1fEE7YdMzxtieNwLahN68rMwI1QRf-JotDwqSwK2d-CnqcDHooNV1QsvMeLmA87atlWnZ7lmVGUk8xw0G00]--></g></svg>